<svg width="24" height="25" viewBox="0 0 24 25" fill="none" xmlns="http://www.w3.org/2000/svg">
<path d="M7.77734 6.89969C7.77734 7.87713 8.52648 8.6695 9.45059 8.6695C9.68422 8.6695 9.90665 8.61885 10.1086 8.52739C10.7056 8.25704 11.1239 7.63003 11.1239 6.89969C11.1239 5.92226 10.3747 5.12988 9.45059 5.12988C8.52648 5.12988 7.77734 5.92226 7.77734 6.89969Z" stroke="#616161" stroke-linecap="round" stroke-linejoin="round"/>
<path d="M6.91016 10.4225C7.17603 9.88761 7.54972 9.44553 7.99528 9.13878C8.44083 8.83202 8.94328 8.6709 9.45432 8.6709C9.96536 8.6709 10.4678 8.83202 10.9134 9.13878C11.3589 9.44553 11.7326 9.88761 11.9985 10.4225" stroke="#616161" stroke-linecap="round" stroke-linejoin="round"/>
<path d="M20 20.5144C20 20.9224 19.8467 21.3137 19.574 21.6022C19.3012 21.8907 18.9312 22.0528 18.5455 22.0528H5.45455C5.06877 22.0528 4.69881 21.8907 4.42602 21.6022C4.15325 21.3137 4 20.9224 4 20.5144V3.5912C4 3.18317 4.15325 2.79186 4.42602 2.50334C4.69881 2.21482 5.06877 2.05273 5.45455 2.05273H14.9091L20 7.43737V20.5144Z" stroke="#616161" stroke-linecap="round" stroke-linejoin="round"/>
<path d="M6.91016 14.3604H17.092" stroke="#616161" stroke-linecap="round"/>
<path d="M6.91016 18.2061H12.7283" stroke="#616161" stroke-linecap="round"/>
</svg>
