<svg width="60" height="60" viewBox="0 0 60 60" fill="none" xmlns="http://www.w3.org/2000/svg">
<path d="M44.7 0H15.3C6.85004 0 0 6.85004 0 15.3V44.7C0 53.15 6.85004 60 15.3 60H44.7C53.15 60 60 53.15 60 44.7V15.3C60 6.85004 53.15 0 44.7 0Z" fill="#9E9E9E"/>
<path d="M11.333 35.3022V13.6665H35.8464V19.3816H19.8096V21.2426H35.8464V26.9937H19.8096V29.5871H36.6663V35.3022H11.333ZM36.6663 37.5955V52.9998H11.333V37.5955H36.6663ZM17.0725 43.4427V47.1647H30.9148V43.4427H17.0725Z" fill="white"/>
<path d="M48.3333 4V53H38.9308V11.5946H32V5.35148L48.3333 4Z" fill="white"/>
<rect x="15.3174" y="8.34766" width="2.36806" height="5.38194" rx="1.18403" fill="#616161"/>
<path d="M19.784 11.1904C20.3559 10.3477 19.7522 9.2085 18.7338 9.2085C18.3131 9.2085 17.9198 9.41694 17.6835 9.76505L15.1974 13.4288C15.1107 13.5566 15.2023 13.7293 15.3567 13.7293H18.0612L19.784 11.1904Z" fill="#616161"/>
<ellipse cx="20.322" cy="7.80925" rx="1.34549" ry="1.29167" fill="#616161"/>
<path d="M13.2169 11.1904C12.6451 10.3477 13.2487 9.2085 14.2672 9.2085C14.6879 9.2085 15.0812 9.41694 15.3174 9.76505L18.0075 13.7293H14.9703C14.9512 13.7293 14.9334 13.7199 14.9226 13.7041L13.2169 11.1904Z" fill="#616161"/>
<ellipse cx="12.6795" cy="7.80925" rx="1.34549" ry="1.29167" fill="#616161"/>
<ellipse cx="16.5007" cy="6.67898" rx="1.29167" ry="1.34549" fill="#616161"/>
</svg>
