<svg width="1024" height="1024" viewBox="0 0 1024 1024" fill="none" xmlns="http://www.w3.org/2000/svg">
<rect width="1024" height="1024" rx="240" fill="#00AEE4"/>
<g clip-path="url(#clip0_2627_34184)">
<path d="M132.061 616.014V454.546H92.7316C77.7692 454.546 71.998 442.109 71.998 431.602C71.998 421.094 77.5555 409.515 92.7316 409.515H224.614C239.79 409.515 245.348 421.094 245.348 431.602C245.348 442.109 239.363 454.546 224.614 454.546H185.498V616.014H132.061Z" fill="#FDFDFD"/>
<path d="M471.482 429.447C476.612 415.08 490.719 408.004 504.613 408.004C517.651 408.004 531.331 415.509 536.034 429.447L602.937 616.218H546.507L536.461 584.267H470.627L460.794 616.218H405.434L471.482 429.447ZM484.093 540.738H523.209L503.758 476.622L484.093 540.738Z" fill="#FDFDFD"/>
<path d="M699.113 594.134L673.25 500.212L661.493 616.006H612.973L634.561 434.167C636.057 418.513 649.951 409.507 661.493 408.435C673.891 407.363 690.991 412.509 695.479 429.449L726.473 547.173L757.466 429.449C762.169 412.509 779.268 407.363 791.666 408.435C803.208 409.507 817.102 418.513 818.598 434.167L840.187 616.006H791.666L780.124 499.569L754.046 594.134C751.481 602.926 736.305 606.785 726.687 606.785C717.068 606.785 701.892 602.926 699.327 594.134H699.113Z" fill="#FDFDFD"/>
<path d="M926.342 408.004C941.305 408.004 951.992 417.01 951.992 433.95V616.004H900.693V487.773H876.539C862.218 487.773 850.248 480.267 850.248 466.115C850.248 454.321 858.37 446.601 868.63 445.315C885.089 443.171 898.983 437.595 903.685 423.872C907.532 413.364 915.441 408.004 926.342 408.004Z" fill="#FDFDFD"/>
<path fill-rule="evenodd" clip-rule="evenodd" d="M253.27 489.08H376.698C390.955 489.596 396.481 501.721 396.481 511.793C396.481 522.086 390.923 533.665 375.747 533.665H305.852V533.674H253.27V489.08ZM253.27 570.985V575.48C253.27 605.071 262.461 616.222 293.24 616.222H380.663C395.412 616.222 401.397 603.785 401.397 593.278C401.397 582.77 395.839 571.191 380.663 571.191H313.333C312.071 571.191 311.008 571.134 310.117 570.985H253.27ZM253.27 449.608V454.128H309.97C310.891 453.96 312 453.896 313.333 453.896H378.098C393.274 453.896 398.832 442.317 398.832 431.81C398.832 421.302 393.061 408.865 378.098 408.865H293.24C262.461 408.865 253.27 420.016 253.27 449.608Z" fill="#FDFDFD"/>
</g>
<defs>
<clipPath id="clip0_2627_34184">
<rect width="880" height="208" fill="white" transform="translate(72 408)"/>
</clipPath>
</defs>
</svg>
