<svg width="24" height="25" viewBox="0 0 24 25" fill="none" xmlns="http://www.w3.org/2000/svg">
<path d="M9 11.0527C10.933 11.0527 12.5 9.48573 12.5 7.55273C12.5 5.61974 10.933 4.05273 9 4.05273C7.06701 4.05273 5.5 5.61974 5.5 7.55273C5.5 9.48573 7.06701 11.0527 9 11.0527Z" stroke="#616161" stroke-linecap="round" stroke-linejoin="round"/>
<path d="M3 20.0527H15V19.2946C14.9894 18.2285 14.7214 17.1827 14.221 16.2548C13.7206 15.3269 13.0041 14.5471 12.1386 13.9884C11.273 13.4297 10.2865 13.1102 9.27136 13.0598C9.18085 13.0553 9.09037 13.0529 9 13.0527C8.90963 13.0529 8.81915 13.0553 8.72864 13.0598C7.71345 13.1102 6.727 13.4297 5.86143 13.9884C4.99587 14.5471 4.27943 15.3269 3.77903 16.2548C3.27864 17.1827 3.01061 18.2285 3 19.2946V20.0527Z" stroke="#616161" stroke-linecap="round" stroke-linejoin="round"/>
<path d="M13.7695 11.1638C15.6813 11.1638 17.2311 9.57192 17.2311 7.60826C17.2311 5.6446 15.6813 4.05273 13.7695 4.05273" stroke="#616161" stroke-linecap="round" stroke-linejoin="round"/>
<path d="M17.1429 20.0527H20V19.2767C19.9886 18.1857 19.7014 17.1154 19.1653 16.1658C18.6291 15.2162 17.8616 14.4182 16.9341 13.8464C16.3347 13.4768 15.681 13.2095 15 13.0527" stroke="#616161" stroke-linecap="round" stroke-linejoin="round"/>
</svg>
